<svg id="Layer_2" data-name="Layer 2" xmlns="http://www.w3.org/2000/svg" viewBox="0 0 221.24 109.22"><defs><style>.cls-1,.cls-4{fill:none;stroke:#fff;}.cls-1{stroke-linecap:round;stroke-dasharray:2 5;opacity:0.7;isolation:isolate;}.cls-2{fill:#fff;}.cls-3{fill:#f59b00;}</style></defs><path id="mark" class="cls-1" d="M41.69,36.42s21.19-8.69,38.79,2.73C94.62,54,80.34,59.29,92,77.05c4.14,6.31,14.65,8.17,26,8.07,32.5-11.1,36.7,19.39,66.91-15.76" transform="translate(-3.76 -12.78)"/><path id="icon" class="cls-2" d="M3.79,25a1.37,1.37,0,0,1,.93-1L40,14a.67.67,0,1,1,.36,1.29L6.66,24.85l24.26,5a.67.67,0,0,1-.28,1.31L6,26.08l8.37,7.26L25,43.52a.64.64,0,0,0,.56.18.62.62,0,0,0,.46-.32L31.13,35l2.36-4.13a.68.68,0,0,1,.92-.25.43.43,0,0,1,.1.09h0l6.83,5.27L37.21,25.43l-20.27.46a.64.64,0,0,1-.62-.3.68.68,0,0,1,.6-1L37.3,24.1l6.45-11a.69.69,0,0,1,.92-.24.67.67,0,0,1,.24.91l-6.5,11L42.6,35.43A1.33,1.33,0,0,1,42.17,37h0a1.38,1.38,0,0,1-.9.26h-.09L32,36l-4.8,8a2,2,0,0,1-1.42,1,2,2,0,0,1-1.69-.52L13.48,34.33l-9.26-8A1.34,1.34,0,0,1,3.79,25ZM38.7,35.56l-4.43-3.41-1.19,2.09-.32.52Z" transform="translate(-3.76 -12.78)"/><g id="background"><path class="cls-3" d="M191.87,45.93a2,2,0,0,1,3.43.64l4.94,13.87a2,2,0,0,0,2,1.34L217,60.68a2,2,0,0,1,2,2.88l-6.32,13.31a2,2,0,0,0,.51,2.39l11.16,9.61a2,2,0,0,1-.64,3.43l-13.88,4.94a2,2,0,0,0-1.33,2.05L209.54,114a2,2,0,0,1-2.88,2l-13.3-6.32a2,2,0,0,0-2.4.51l-9.61,11.16a2,2,0,0,1-3.43-.64L173,106.78a2,2,0,0,0-2-1.33l-14.69,1.09a2,2,0,0,1-2-2.88l6.32-13.3a2,2,0,0,0-.5-2.4l-11.16-9.61a2,2,0,0,1,.64-3.43L163.44,70a2,2,0,0,0,1.34-2l-1.09-14.69a2,2,0,0,1,2.87-2l13.31,6.32a2,2,0,0,0,2.39-.5Z" transform="translate(-3.76 -12.78)"/><path class="cls-4" d="M192.26,46.26a1.51,1.51,0,0,1,2.57.48l4.94,13.87a2.51,2.51,0,0,0,2.56,1.67L217,61.19a1.51,1.51,0,0,1,1.48,2.16l-6.32,13.3a2.51,2.51,0,0,0,.63,3L224,89.26a1.51,1.51,0,0,1-.48,2.57l-13.88,4.94a2.53,2.53,0,0,0-1.67,2.56L209,114a1.51,1.51,0,0,1-2.16,1.48l-13.31-6.32a2.52,2.52,0,0,0-3,.63L181,121a1.51,1.51,0,0,1-2.57-.48l-4.94-13.88a2.53,2.53,0,0,0-2.57-1.67L156.21,106a1.51,1.51,0,0,1-1.48-2.16l6.32-13.31a2.53,2.53,0,0,0-.63-3L149.26,78a1.51,1.51,0,0,1,.48-2.57l13.87-4.94a2.52,2.52,0,0,0,1.67-2.57l-1.09-14.68a1.51,1.51,0,0,1,2.16-1.48l13.3,6.32a2.53,2.53,0,0,0,3-.63Z" transform="translate(-3.76 -12.78)"/></g><path class="cls-2" d="M174.15,72.3a3.38,3.38,0,0,1,2.31-.75,3.65,3.65,0,0,1,1.65.34,2.41,2.41,0,0,1,1,.91,2.51,2.51,0,0,1,.35,1.3,2.19,2.19,0,0,1-.42,1.39,2.26,2.26,0,0,1-1,.73v0a2.27,2.27,0,0,1,1.16.81,2.32,2.32,0,0,1,.43,1.46,2.65,2.65,0,0,1-.37,1.41,2.57,2.57,0,0,1-1.07,1,4.33,4.33,0,0,1-4.13-.42,2.93,2.93,0,0,1-1-2.29h2.14a1.35,1.35,0,0,0,.32.9,1.23,1.23,0,0,0,.91.32,1,1,0,0,0,.78-.29,1.05,1.05,0,0,0,.27-.76,1,1,0,0,0-.39-.9,2.27,2.27,0,0,0-1.26-.27h-.41V75.4h.41a2.21,2.21,0,0,0,1.07-.22.84.84,0,0,0,.4-.81,1,1,0,0,0-.25-.72,1,1,0,0,0-.71-.26.87.87,0,0,0-.73.3,1.35,1.35,0,0,0-.28.73h-2.15A2.79,2.79,0,0,1,174.15,72.3Z" transform="translate(-3.76 -12.78)"/><path class="cls-2" d="M181.82,72.85a3.64,3.64,0,0,1,5.53,0,7.57,7.57,0,0,1,0,7,3.63,3.63,0,0,1-5.53,0,7.65,7.65,0,0,1,0-7Zm3.94,1.49a1.33,1.33,0,0,0-2.34,0,5.53,5.53,0,0,0-.29,2,8.15,8.15,0,0,0,.11,1.45,1.74,1.74,0,0,0,.41.93,1.19,1.19,0,0,0,.94.36,1.17,1.17,0,0,0,.93-.36,1.82,1.82,0,0,0,.42-.93,8.28,8.28,0,0,0,.1-1.45A5.56,5.56,0,0,0,185.76,74.34Z" transform="translate(-3.76 -12.78)"/><path class="cls-2" d="M189.79,72.53a2.14,2.14,0,0,1,3.69,1.61,2,2,0,0,1-2.14,2.18,2.16,2.16,0,0,1-1.55-.57,2.46,2.46,0,0,1,0-3.22Zm.92,1.61c0,.59.21.88.62.88a.56.56,0,0,0,.46-.22,1.11,1.11,0,0,0,.17-.66c0-.59-.21-.89-.63-.89S190.71,73.55,190.71,74.14Zm7.23-2-5,9.08h-2.13l5-9.08Zm-2,5.43a2.12,2.12,0,0,1,1.54-.57,2.18,2.18,0,1,1,0,4.36,2.26,2.26,0,0,1-1.54-3.79Zm1.07.94a1.12,1.12,0,0,0-.16.67c0,.58.21.88.62.88a.56.56,0,0,0,.46-.22,1.37,1.37,0,0,0,0-1.32.54.54,0,0,0-.46-.23A.53.53,0,0,0,197,78.47Z" transform="translate(-3.76 -12.78)"/><path class="cls-2" d="M179.43,93.64A3.73,3.73,0,0,1,178,92.26a3.81,3.81,0,0,1-.52-2,3.77,3.77,0,0,1,1.93-3.36,4.11,4.11,0,0,1,3.89,0,3.57,3.57,0,0,1,1.4,1.38,4.08,4.08,0,0,1,0,4,3.61,3.61,0,0,1-1.39,1.38,4,4,0,0,1-3.89,0Zm3.39-1.78a2.61,2.61,0,0,0,0-3.18,1.84,1.84,0,0,0-1.44-.6,1.9,1.9,0,0,0-1.46.59,2.64,2.64,0,0,0,0,3.2,1.9,1.9,0,0,0,1.46.59A1.84,1.84,0,0,0,182.82,91.86Z" transform="translate(-3.76 -12.78)"/><path class="cls-2" d="M191.16,86.52V88h-3.07v1.58h2.29V91h-2.29v3h-1.84V86.52Z" transform="translate(-3.76 -12.78)"/><path class="cls-2" d="M197,86.52V88H194v1.58h2.3V91H194v3h-1.83V86.52Z" transform="translate(-3.76 -12.78)"/></svg>